<mxfile host="app.diagrams.net" agent="Mozilla/5.0 (Windows NT 10.0; Win64; x64; rv:109.0) Gecko/20100101 Firefox/127.0" version="24.7.12">
  <diagram name="Page-1" id="TX9XbIHk7eYWWUNDwRXn">
    <mxGraphModel dx="1062" dy="583" grid="1" gridSize="10" guides="1" tooltips="1" connect="1" arrows="1" fold="1" page="1" pageScale="1" pageWidth="850" pageHeight="1100" math="0" shadow="0">
      <root>
        <mxCell id="0" />
        <mxCell id="1" parent="0" />
        <mxCell id="VriAh3fz-FV6WPdwQD_c-1" value="Doctors" style="shape=umlActor;verticalLabelPosition=bottom;verticalAlign=top;html=1;outlineConnect=0;" parent="1" vertex="1">
          <mxGeometry x="80" y="510" width="30" height="60" as="geometry" />
        </mxCell>
        <mxCell id="U8pV0hxq8biJtbgsrZ2j-1" value="Administrator" style="shape=umlActor;verticalLabelPosition=bottom;verticalAlign=top;html=1;outlineConnect=0;" vertex="1" parent="1">
          <mxGeometry x="80" y="720" width="30" height="60" as="geometry" />
        </mxCell>
        <mxCell id="U8pV0hxq8biJtbgsrZ2j-3" value="Staff" style="shape=umlActor;verticalLabelPosition=bottom;verticalAlign=top;html=1;outlineConnect=0;" vertex="1" parent="1">
          <mxGeometry x="80" y="620" width="30" height="60" as="geometry" />
        </mxCell>
        <mxCell id="U8pV0hxq8biJtbgsrZ2j-4" value="Patients" style="shape=umlActor;verticalLabelPosition=bottom;verticalAlign=top;html=1;outlineConnect=0;" vertex="1" parent="1">
          <mxGeometry x="80" y="410" width="30" height="60" as="geometry" />
        </mxCell>
        <mxCell id="U8pV0hxq8biJtbgsrZ2j-5" value="" style="swimlane;startSize=0;" vertex="1" parent="1">
          <mxGeometry x="160" y="240" width="550" height="740" as="geometry" />
        </mxCell>
        <mxCell id="U8pV0hxq8biJtbgsrZ2j-6" value="Register account" style="ellipse;whiteSpace=wrap;html=1;" vertex="1" parent="U8pV0hxq8biJtbgsrZ2j-5">
          <mxGeometry x="45" y="10" width="90" height="50" as="geometry" />
        </mxCell>
        <mxCell id="U8pV0hxq8biJtbgsrZ2j-7" value="Log in" style="ellipse;whiteSpace=wrap;html=1;" vertex="1" parent="U8pV0hxq8biJtbgsrZ2j-5">
          <mxGeometry x="155" y="30" width="70" height="50" as="geometry" />
        </mxCell>
        <mxCell id="U8pV0hxq8biJtbgsrZ2j-8" value="Modify account" style="ellipse;whiteSpace=wrap;html=1;" vertex="1" parent="U8pV0hxq8biJtbgsrZ2j-5">
          <mxGeometry x="45" y="80" width="90" height="50" as="geometry" />
        </mxCell>
        <mxCell id="U8pV0hxq8biJtbgsrZ2j-9" value="Edit account" style="ellipse;whiteSpace=wrap;html=1;" vertex="1" parent="U8pV0hxq8biJtbgsrZ2j-5">
          <mxGeometry x="145" y="100" width="90" height="50" as="geometry" />
        </mxCell>
        <mxCell id="U8pV0hxq8biJtbgsrZ2j-10" value="Approve account" style="ellipse;whiteSpace=wrap;html=1;" vertex="1" parent="U8pV0hxq8biJtbgsrZ2j-5">
          <mxGeometry x="45" y="140" width="100" height="50" as="geometry" />
        </mxCell>
        <mxCell id="U8pV0hxq8biJtbgsrZ2j-11" value="Delete account" style="ellipse;whiteSpace=wrap;html=1;" vertex="1" parent="U8pV0hxq8biJtbgsrZ2j-5">
          <mxGeometry x="145" y="170" width="90" height="50" as="geometry" />
        </mxCell>
        <mxCell id="U8pV0hxq8biJtbgsrZ2j-12" value="Make appointment" style="ellipse;whiteSpace=wrap;html=1;" vertex="1" parent="U8pV0hxq8biJtbgsrZ2j-5">
          <mxGeometry x="50" y="200" width="90" height="50" as="geometry" />
        </mxCell>
        <mxCell id="U8pV0hxq8biJtbgsrZ2j-13" value="prescribe exams" style="ellipse;whiteSpace=wrap;html=1;" vertex="1" parent="U8pV0hxq8biJtbgsrZ2j-5">
          <mxGeometry x="145" y="230" width="90" height="50" as="geometry" />
        </mxCell>
        <mxCell id="U8pV0hxq8biJtbgsrZ2j-14" value="prescribe exams" style="ellipse;whiteSpace=wrap;html=1;" vertex="1" parent="U8pV0hxq8biJtbgsrZ2j-5">
          <mxGeometry x="50" y="260" width="90" height="50" as="geometry" />
        </mxCell>
        <mxCell id="U8pV0hxq8biJtbgsrZ2j-15" value="create result of exam" style="ellipse;whiteSpace=wrap;html=1;" vertex="1" parent="U8pV0hxq8biJtbgsrZ2j-5">
          <mxGeometry x="155" y="290" width="90" height="50" as="geometry" />
        </mxCell>
        <mxCell id="U8pV0hxq8biJtbgsrZ2j-16" value="modify result of exam" style="ellipse;whiteSpace=wrap;html=1;" vertex="1" parent="U8pV0hxq8biJtbgsrZ2j-5">
          <mxGeometry x="55" y="320" width="90" height="50" as="geometry" />
        </mxCell>
        <mxCell id="U8pV0hxq8biJtbgsrZ2j-18" value="check results of exam" style="ellipse;whiteSpace=wrap;html=1;" vertex="1" parent="U8pV0hxq8biJtbgsrZ2j-5">
          <mxGeometry x="155" y="350" width="90" height="50" as="geometry" />
        </mxCell>
        <mxCell id="U8pV0hxq8biJtbgsrZ2j-19" value="delete results of exam" style="ellipse;whiteSpace=wrap;html=1;" vertex="1" parent="U8pV0hxq8biJtbgsrZ2j-5">
          <mxGeometry x="55" y="380" width="90" height="50" as="geometry" />
        </mxCell>
        <mxCell id="U8pV0hxq8biJtbgsrZ2j-20" value="search for results of exam" style="ellipse;whiteSpace=wrap;html=1;" vertex="1" parent="U8pV0hxq8biJtbgsrZ2j-5">
          <mxGeometry x="155" y="410" width="90" height="50" as="geometry" />
        </mxCell>
        <mxCell id="U8pV0hxq8biJtbgsrZ2j-21" value="set up Patients profile" style="ellipse;whiteSpace=wrap;html=1;" vertex="1" parent="U8pV0hxq8biJtbgsrZ2j-5">
          <mxGeometry x="55" y="440" width="100" height="50" as="geometry" />
        </mxCell>
        <mxCell id="U8pV0hxq8biJtbgsrZ2j-38" value="modify Patients profile" style="ellipse;whiteSpace=wrap;html=1;" vertex="1" parent="U8pV0hxq8biJtbgsrZ2j-5">
          <mxGeometry x="160" y="470" width="100" height="50" as="geometry" />
        </mxCell>
        <mxCell id="U8pV0hxq8biJtbgsrZ2j-39" value="delete Patients profile" style="ellipse;whiteSpace=wrap;html=1;" vertex="1" parent="U8pV0hxq8biJtbgsrZ2j-5">
          <mxGeometry x="55" y="500" width="100" height="50" as="geometry" />
        </mxCell>
        <mxCell id="U8pV0hxq8biJtbgsrZ2j-40" value="set up monitoring function" style="ellipse;whiteSpace=wrap;html=1;" vertex="1" parent="U8pV0hxq8biJtbgsrZ2j-5">
          <mxGeometry x="160" y="530" width="100" height="50" as="geometry" />
        </mxCell>
        <mxCell id="U8pV0hxq8biJtbgsrZ2j-41" value="generate report" style="ellipse;whiteSpace=wrap;html=1;" vertex="1" parent="U8pV0hxq8biJtbgsrZ2j-5">
          <mxGeometry x="55" y="560" width="100" height="50" as="geometry" />
        </mxCell>
        <mxCell id="U8pV0hxq8biJtbgsrZ2j-42" value="check report" style="ellipse;whiteSpace=wrap;html=1;" vertex="1" parent="U8pV0hxq8biJtbgsrZ2j-5">
          <mxGeometry x="160" y="590" width="100" height="50" as="geometry" />
        </mxCell>
        <mxCell id="U8pV0hxq8biJtbgsrZ2j-43" value="generate patients prediction report" style="ellipse;whiteSpace=wrap;html=1;" vertex="1" parent="U8pV0hxq8biJtbgsrZ2j-5">
          <mxGeometry x="40" y="620" width="130" height="70" as="geometry" />
        </mxCell>
        <mxCell id="U8pV0hxq8biJtbgsrZ2j-44" value="email notification" style="ellipse;whiteSpace=wrap;html=1;" vertex="1" parent="U8pV0hxq8biJtbgsrZ2j-5">
          <mxGeometry x="170" y="670" width="80" height="50" as="geometry" />
        </mxCell>
      </root>
    </mxGraphModel>
  </diagram>
</mxfile>
